/* XPM */
static char * stick_pressed_xpm[] = {
"32 24 2 1",
" 	c #959595",
".	c #000000",
"                                ",
"                                ",
"                                ",
"                                ",
"                                ",
"                                ",
"               ..               ",
"             ......             ",
"            ..    ..            ",
"           ..      ..           ",
"           .        .           ",
"          ..   ..   ..          ",
"          ..   ..   ..          ",
"           .        .           ",
"           ..      ..           ",
"            ..    ..            ",
"             ......             ",
"               ..               ",
"                                ",
"                                ",
"                                ",
"                                ",
"                                ",
"                                "};
